<?xml version="1.0" encoding="UTF-8"?>
<svg version="1.1" xmlns="http://www.w3.org/2000/svg" width="24" height="24">
<path d="M0 0 C-0.2475 0.5775 -0.495 1.155 -0.75 1.75 C-0.8325 2.4925 -0.915 3.235 -1 4 C-0.34 4.66 0.32 5.32 1 6 C1.66 6.66 2.32 7.32 3 8 C2.75 10.25 2.75 10.25 2 12 C1.4225 11.690625 0.845 11.38125 0.25 11.0625 C-1.84294184 10.07416636 -3.74535275 9.4831387 -6 9 C-7.32 10.65 -8.64 12.3 -10 14 C-8.35 15.98 -6.7 17.96 -5 20 C-4.236875 19.484375 -3.47375 18.96875 -2.6875 18.4375 C-1.800625 17.963125 -0.91375 17.48875 0 17 C0.99 17.33 1.98 17.66 3 18 C1.84826645 20.46800047 0.95216435 22.04783565 -1 24 C-4.1875 24.625 -4.1875 24.625 -8 24 C-10.8999563 21.71870104 -13.26614466 19.26808917 -15 16 C-14.83492441 11.91755356 -13.35424838 9.81153307 -10.625 6.875 C-10.01914063 6.21242188 -9.41328125 5.54984375 -8.7890625 4.8671875 C-8.19867187 4.25101562 -7.60828125 3.63484375 -7 3 C-6.51273438 2.42507812 -6.02546875 1.85015625 -5.5234375 1.2578125 C-4 -0 -4 -0 0 0 Z " fill="#241C07" transform="translate(16,0)"/>
<path d="M0 0 C4.29 0 8.58 0 13 0 C13 0.99 13 1.98 13 3 C8.71 3 4.42 3 0 3 C0 2.01 0 1.02 0 0 Z " fill="#B2B0AF" transform="translate(9,13)"/>
<path d="M0 0 C-1.15173355 2.46800047 -2.04783565 4.04783565 -4 6 C-7.625 6.125 -7.625 6.125 -11 6 C-10.34 5.67 -9.68 5.34 -9 5 C-8.67 4.01 -8.34 3.02 -8 2 C-3.63934426 -1.21311475 -3.63934426 -1.21311475 0 0 Z " fill="#E5A21E" transform="translate(19,18)"/>
<path d="M0 0 C2.46800047 1.15173355 4.04783565 2.04783565 6 4 C6 5.32 6 6.64 6 8 C3.64035727 7.59316505 2.14065912 7.10185661 0.1875 5.6875 C-1 4 -1 4 -0.6875 1.8125 C-0.460625 1.214375 -0.23375 0.61625 0 0 Z " fill="#31240A" transform="translate(4,15)"/>
<path d="M0 0 C3.29714793 0.32971479 4.6226839 0.6226839 7 3 C6.625 5.125 6.625 5.125 6 7 C3.04590299 5.62845496 0.55991624 4.01136276 -2 2 C-1.34 1.34 -0.68 0.68 0 0 Z " fill="#DF9D1D" transform="translate(12,5)"/>
</svg>
